<?xml version="1.0" standalone="no"?>
<!DOCTYPE svg PUBLIC "-//W3C//DTD SVG 20010904//EN"
 "http://www.w3.org/TR/2001/REC-SVG-20010904/DTD/svg10.dtd">
<svg version="1.0" xmlns="http://www.w3.org/2000/svg"
 width="110.000000pt" height="110.000000pt" viewBox="0 0 110.000000 110.000000"
 preserveAspectRatio="xMidYMid meet">
<metadata>
Created by potrace 1.14, written by Peter Selinger 2001-2017
</metadata>
<g transform="translate(0.000000,110.000000) scale(0.100000,-0.100000)"
fill="#000000" stroke="none">
<path d="M445 1066 c-156 -37 -283 -163 -316 -314 -5 -27 -11 -62 -13 -78 -4
-49 21 -159 49 -215 49 -95 162 -188 260 -214 60 -16 176 -13 226 5 27 10 49
16 49 13 0 -3 7 0 15 7 8 6 20 8 26 4 7 -4 9 -3 6 4 -4 5 12 22 36 37 89 57
167 204 172 324 10 274 -246 488 -510 427z"/>
<path d="M109 294 l-34 -36 50 -43 c48 -43 152 -103 168 -97 4 1 24 -6 45 -17
20 -10 45 -17 55 -15 10 1 29 -4 43 -11 17 -9 36 -10 54 -5 21 6 30 4 34 -6 3
-7 12 -11 21 -8 21 8 19 22 -2 20 -13 -1 -18 6 -17 24 l1 24 -15 -22 c-16 -25
-58 -29 -86 -9 -44 32 19 98 66 68 21 -13 24 -6 6 12 -30 29 -84 6 -92 -37 -4
-19 -13 -36 -20 -39 -21 -8 -26 2 -15 31 l10 27 -23 -21 c-30 -28 -48 -20 -49
19 l-1 32 -10 -28 c-12 -33 -34 -30 -30 4 3 30 30 59 48 52 8 -3 14 -18 14
-34 0 -34 10 -37 35 -9 12 13 25 18 38 14 13 -4 17 -2 13 5 -10 16 -37 14 -56
-4 -16 -14 -18 -13 -23 15 -4 16 -13 30 -21 30 -8 0 -33 10 -56 22 l-42 23
-17 -24 c-13 -17 -23 -22 -39 -16 -28 8 -28 19 2 42 18 15 22 23 14 36 -14 25
-30 21 -69 -19z m43 -10 c-28 -19 -28 -31 2 -59 l24 -22 21 28 c21 28 21 28
56 12 l34 -16 -19 -28 c-11 -15 -20 -32 -20 -38 0 -25 -41 -1 -153 89 -4 4 7
21 25 38 21 22 35 29 42 22 7 -7 3 -15 -12 -26z"/>
<path d="M225 230 c-6 -9 1 -14 17 -11 4 0 5 -6 1 -14 -4 -12 -9 -13 -18 -5
-9 8 -15 8 -20 0 -3 -5 1 -10 9 -10 9 0 16 -6 16 -12 0 -7 6 -4 12 7 6 11 16
23 21 26 5 4 0 12 -11 18 -14 7 -23 8 -27 1z"/>
<path d="M924 309 c-10 -11 -32 -27 -49 -34 -16 -8 -41 -23 -55 -35 -24 -21
-24 -21 17 1 24 12 46 19 50 15 11 -10 10 -50 -2 -58 -5 -4 -6 -10 -3 -14 4
-3 15 1 24 10 9 9 19 14 23 11 3 -4 -7 -18 -22 -31 -31 -27 -62 -32 -54 -10 4
10 1 13 -7 10 -7 -3 -19 3 -27 12 -8 10 -9 15 -2 11 6 -4 15 -2 19 4 5 8 9 8
14 -1 5 -7 9 -2 12 14 5 25 4 26 -12 11 -19 -17 -46 -22 -70 -11 -28 12 -53
-17 -52 -60 0 -21 1 -46 3 -54 5 -21 -46 -26 -54 -6 -4 9 -2 16 3 16 6 0 10
-5 10 -12 0 -6 3 -9 6 -5 4 3 4 13 1 21 -9 23 -39 8 -32 -15 4 -13 1 -19 -9
-19 -9 0 -16 7 -16 15 0 8 -4 15 -9 15 -5 0 -7 -9 -4 -20 9 -32 -38 -26 -59 7
-13 21 -18 23 -18 11 0 -10 5 -18 10 -18 6 0 10 -7 10 -16 0 -14 10 -15 82 -9
45 4 86 11 92 16 55 46 60 49 71 39 9 -7 16 -6 24 4 7 8 18 13 24 11 7 -3 27
9 46 25 18 17 38 30 42 30 13 0 69 61 69 75 0 19 -12 25 -31 14 -20 -10 -23
-4 -20 34 3 23 -22 22 -45 -4z m30 -13 c-3 -9 -10 -13 -15 -10 -5 3 -9 -2 -9
-11 0 -12 6 -15 20 -10 21 7 29 -10 8 -18 -7 -2 -10 -7 -7 -11 4 -4 16 3 28
15 11 12 24 19 28 15 4 -3 -7 -20 -24 -37 l-30 -31 -29 37 -28 37 28 25 c30
26 40 26 30 -1z m-39 -65 c3 -5 1 -12 -5 -16 -5 -3 -10 1 -10 9 0 18 6 21 15
7z m-74 -94 c-7 -7 -15 -6 -24 1 -10 8 -20 5 -42 -14 l-30 -26 -5 29 c-8 41 0
71 19 75 22 5 94 -53 82 -65z"/>
<path d="M762 164 c3 -17 21 -21 26 -6 1 5 -4 12 -13 16 -11 4 -15 1 -13 -10z"/>
<path d="M682 188 c-8 -8 -9 -15 -1 -25 9 -10 8 -13 -5 -13 -9 0 -16 -5 -16
-10 0 -7 7 -7 21 0 15 9 18 15 10 24 -15 18 -1 29 17 13 12 -10 14 -9 11 2 -7
20 -22 24 -37 9z"/>
<path d="M581 158 c-7 -18 -9 -19 -14 -5 -8 21 -43 22 -51 1 -8 -21 -8 -24 4
-24 6 0 10 7 10 15 0 24 17 17 44 -17 l25 -33 -5 38 c-3 28 -1 37 11 37 9 0
15 -9 16 -22 l0 -23 10 23 c5 13 13 20 19 17 5 -3 10 -2 10 3 0 5 -16 9 -35
10 -28 1 -38 -3 -44 -20z"/>
<path d="M452 148 c-16 -16 -15 -45 2 -51 16 -6 43 19 32 30 -3 3 -6 1 -6 -5
0 -7 -7 -12 -15 -12 -21 0 -19 28 3 32 10 2 13 6 6 10 -6 4 -16 2 -22 -4z"/>
</g>
</svg>
